<?xml version="1.0" encoding="UTF-8"?> <svg xmlns="http://www.w3.org/2000/svg" width="387" height="36" viewBox="0 0 387 36" fill="none"> <path d="M368.424 36H18.576C8.31676 36 0 27.9411 0 18C0 8.05887 8.31676 0 18.576 0H368.424C378.683 0 387 8.05887 387 18C387 27.9411 378.683 36 368.424 36Z" fill="#FFF705"></path> <path d="M44.3594 18.3594L44.9766 12.625H51.0859V14.2656H46.5547L46.2422 16.9844C46.7682 16.6823 47.362 16.5312 48.0234 16.5312C49.1068 16.5312 49.9479 16.8776 50.5469 17.5703C51.151 18.263 51.4531 19.1953 51.4531 20.3672C51.4531 21.5234 51.1198 22.4453 50.4531 23.1328C49.7865 23.8151 48.8724 24.1562 47.7109 24.1562C46.6693 24.1562 45.8047 23.862 45.1172 23.2734C44.4349 22.6797 44.0651 21.8984 44.0078 20.9297H45.8438C45.9167 21.4818 46.1146 21.9062 46.4375 22.2031C46.7604 22.4948 47.1823 22.6406 47.7031 22.6406C48.2865 22.6406 48.7396 22.4323 49.0625 22.0156C49.3906 21.599 49.5547 21.0312 49.5547 20.3125C49.5547 19.6198 49.375 19.0729 49.0156 18.6719C48.6562 18.2656 48.1615 18.0625 47.5312 18.0625C47.1875 18.0625 46.8958 18.1094 46.6562 18.2031C46.4167 18.2917 46.1562 18.4688 45.875 18.7344L44.3594 18.3594ZM61.0312 16.0156C62.0938 16.0156 62.9453 16.3724 63.5859 17.0859C64.2266 17.7943 64.5469 18.7578 64.5469 19.9766V20.0703C64.5469 21.2891 64.1979 22.276 63.5 23.0312C62.8073 23.7865 61.8646 24.1641 60.6719 24.1641C59.5104 24.1641 58.5729 23.7786 57.8594 23.0078C57.1458 22.237 56.7891 21.1849 56.7891 19.8516V19.3047C56.7891 17.4818 57.112 16.0391 57.7578 14.9766C58.4036 13.9141 59.3672 13.25 60.6484 12.9844C61.3672 12.8385 61.8307 12.6849 62.0391 12.5234C62.2526 12.3568 62.3594 12.1328 62.3594 11.8516H63.8906C63.8906 12.3776 63.8047 12.8047 63.6328 13.1328C63.4609 13.4609 63.1979 13.7292 62.8438 13.9375C62.4896 14.1406 61.8802 14.3333 61.0156 14.5156C60.224 14.6823 59.6198 14.9792 59.2031 15.4062C58.7917 15.8333 58.5156 16.4245 58.375 17.1797C59.1302 16.4036 60.0156 16.0156 61.0312 16.0156ZM60.6562 17.5391C60.0417 17.5391 59.5599 17.7474 59.2109 18.1641C58.862 18.5755 58.6875 19.2109 58.6875 20.0703C58.6875 20.8828 58.8594 21.5156 59.2031 21.9688C59.5469 22.4219 60.0365 22.6484 60.6719 22.6484C61.3021 22.6484 61.7891 22.4219 62.1328 21.9688C62.4818 21.5104 62.6562 20.8229 62.6562 19.9062C62.6562 19.1771 62.4818 18.6016 62.1328 18.1797C61.7891 17.7526 61.2969 17.5391 60.6562 17.5391ZM69.7578 24.1562C68.5547 24.1562 67.5781 23.7786 66.8281 23.0234C66.0833 22.263 65.7109 21.2526 65.7109 19.9922V19.7578C65.7109 18.9141 65.8724 18.1615 66.1953 17.5C66.5234 16.8333 66.9818 16.3151 67.5703 15.9453C68.1589 15.5755 68.8151 15.3906 69.5391 15.3906C70.6901 15.3906 71.5781 15.7578 72.2031 16.4922C72.8333 17.2266 73.1484 18.2656 73.1484 19.6094V20.375H67.625C67.6823 21.0729 67.9141 21.625 68.3203 22.0312C68.7318 22.4375 69.2474 22.6406 69.8672 22.6406C70.737 22.6406 71.4453 22.2891 71.9922 21.5859L73.0156 22.5625C72.6771 23.0677 72.224 23.4609 71.6562 23.7422C71.0938 24.0182 70.4609 24.1562 69.7578 24.1562ZM69.5312 16.9141C69.0104 16.9141 68.5885 17.0964 68.2656 17.4609C67.9479 17.8255 67.7448 18.3333 67.6562 18.9844H71.2734V18.8438C71.2318 18.2083 71.0625 17.7292 70.7656 17.4062C70.4688 17.0781 70.0573 16.9141 69.5312 16.9141ZM78.1016 22.6406C78.5755 22.6406 78.9688 22.5026 79.2812 22.2266C79.5938 21.9505 79.7604 21.6094 79.7812 21.2031H81.5703C81.5495 21.7292 81.3854 22.2214 81.0781 22.6797C80.7708 23.1328 80.3542 23.4922 79.8281 23.7578C79.3021 24.0234 78.7344 24.1562 78.125 24.1562C76.9427 24.1562 76.0052 23.7734 75.3125 23.0078C74.6198 22.2422 74.2734 21.1849 74.2734 19.8359V19.6406C74.2734 18.3542 74.6172 17.3255 75.3047 16.5547C75.9922 15.7786 76.9297 15.3906 78.1172 15.3906C79.1224 15.3906 79.9401 15.6849 80.5703 16.2734C81.2057 16.8568 81.5391 17.625 81.5703 18.5781H79.7812C79.7604 18.0938 79.5938 17.6953 79.2812 17.3828C78.974 17.0703 78.5807 16.9141 78.1016 16.9141C77.487 16.9141 77.013 17.138 76.6797 17.5859C76.3464 18.0286 76.1771 18.7031 76.1719 19.6094V19.9141C76.1719 20.8307 76.3359 21.5156 76.6641 21.9688C76.9974 22.4167 77.4766 22.6406 78.1016 22.6406ZM90.1719 24H88.2734V17.0781H84.9766V24H83.0781V15.5469H90.1719V24ZM99.375 15.5469V24H97.4766V17.0781H95.0859L94.9297 20.0234C94.8307 21.4401 94.5573 22.4583 94.1094 23.0781C93.6667 23.6927 92.987 24 92.0703 24H91.4844L91.4766 22.4219L91.8672 22.3828C92.2839 22.3255 92.5859 22.0729 92.7734 21.625C92.9661 21.1719 93.0885 20.349 93.1406 19.1562L93.2969 15.5469H99.375ZM106.445 24C106.362 23.8385 106.289 23.5755 106.227 23.2109C105.622 23.8411 104.883 24.1562 104.008 24.1562C103.159 24.1562 102.466 23.9141 101.93 23.4297C101.393 22.9453 101.125 22.3464 101.125 21.6328C101.125 20.7318 101.458 20.0417 102.125 19.5625C102.797 19.0781 103.755 18.8359 105 18.8359H106.164V18.2812C106.164 17.8438 106.042 17.4948 105.797 17.2344C105.552 16.9688 105.18 16.8359 104.68 16.8359C104.247 16.8359 103.893 16.9453 103.617 17.1641C103.341 17.3776 103.203 17.651 103.203 17.9844H101.305C101.305 17.5208 101.458 17.0885 101.766 16.6875C102.073 16.2812 102.49 15.9635 103.016 15.7344C103.547 15.5052 104.138 15.3906 104.789 15.3906C105.779 15.3906 106.568 15.6406 107.156 16.1406C107.745 16.6354 108.047 17.3333 108.062 18.2344V22.0469C108.062 22.8073 108.169 23.4141 108.383 23.8672V24H106.445ZM104.359 22.6328C104.734 22.6328 105.086 22.5417 105.414 22.3594C105.747 22.1771 105.997 21.9323 106.164 21.625V20.0312H105.141C104.438 20.0312 103.909 20.1536 103.555 20.3984C103.201 20.6432 103.023 20.9896 103.023 21.4375C103.023 21.8021 103.143 22.0938 103.383 22.3125C103.628 22.526 103.953 22.6328 104.359 22.6328ZM116.578 17.0547H113.836V24H111.938V17.0547H109.227V15.5469H116.578V17.0547ZM125.008 24H123.109V20.5859H119.82V24H117.922V15.5469H119.82V19.0703H123.109V15.5469H125.008V24ZM129.078 18.2344H130.938C131.63 18.2344 132.234 18.3542 132.75 18.5938C133.266 18.8333 133.656 19.1693 133.922 19.6016C134.193 20.0339 134.328 20.5365 134.328 21.1094C134.328 21.9792 134.021 22.6771 133.406 23.2031C132.792 23.7292 131.974 23.9948 130.953 24H127.18V15.5469H129.078V18.2344ZM137.633 24H135.734V15.5469H137.633V24ZM129.078 19.7578V22.4844H130.93C131.393 22.4844 131.758 22.3698 132.023 22.1406C132.294 21.9062 132.43 21.5755 132.43 21.1484C132.43 20.7214 132.297 20.3854 132.031 20.1406C131.771 19.8906 131.417 19.763 130.969 19.7578H129.078ZM142.945 18.3281L144.555 15.5469H146.664L144.078 19.7109L146.75 24H144.656L142.969 21.1094L141.289 24H139.18L141.852 19.7109L139.273 15.5469H141.367L142.945 18.3281ZM158.328 16.7188H155.492V24H154.047V16.7188H151.266V15.5469H158.328V16.7188ZM166.875 19.8672C166.875 21.1536 166.581 22.1901 165.992 22.9766C165.404 23.763 164.607 24.1562 163.602 24.1562C162.576 24.1562 161.768 23.8307 161.18 23.1797V27.25H159.734V15.5469H161.055L161.125 16.4844C161.714 15.7552 162.531 15.3906 163.578 15.3906C164.594 15.3906 165.396 15.7734 165.984 16.5391C166.578 17.3047 166.875 18.3698 166.875 19.7344V19.8672ZM165.43 19.7031C165.43 18.75 165.227 17.9974 164.82 17.4453C164.414 16.8932 163.857 16.6172 163.148 16.6172C162.273 16.6172 161.617 17.0052 161.18 17.7812V21.8203C161.612 22.5911 162.273 22.9766 163.164 22.9766C163.857 22.9766 164.406 22.7031 164.812 22.1562C165.224 21.6042 165.43 20.7865 165.43 19.7031ZM172.227 24.1562C171.081 24.1562 170.148 23.7812 169.43 23.0312C168.711 22.276 168.352 21.2682 168.352 20.0078V19.7422C168.352 18.9036 168.51 18.1562 168.828 17.5C169.151 16.8385 169.599 16.3229 170.172 15.9531C170.75 15.5781 171.375 15.3906 172.047 15.3906C173.146 15.3906 174 15.7526 174.609 16.4766C175.219 17.2005 175.523 18.237 175.523 19.5859V20.1875H169.797C169.818 21.0208 170.06 21.6953 170.523 22.2109C170.992 22.7214 171.586 22.9766 172.305 22.9766C172.815 22.9766 173.247 22.8724 173.602 22.6641C173.956 22.4557 174.266 22.1797 174.531 21.8359L175.414 22.5234C174.706 23.612 173.643 24.1562 172.227 24.1562ZM172.047 16.5781C171.464 16.5781 170.974 16.7917 170.578 17.2188C170.182 17.6406 169.938 18.2344 169.844 19H174.078V18.8906C174.036 18.1562 173.839 17.5885 173.484 17.1875C173.13 16.7812 172.651 16.5781 172.047 16.5781ZM184.109 24H182.664V20.3906H178.781V24H177.328V15.5469H178.781V19.2109H182.664V15.5469H184.109V24ZM191.906 15.5469H193.352V24H191.906V17.8359L188.008 24H186.562V15.5469H188.008V21.7188L191.906 15.5469ZM202.812 19.8672C202.812 21.1536 202.518 22.1901 201.93 22.9766C201.341 23.763 200.544 24.1562 199.539 24.1562C198.513 24.1562 197.706 23.8307 197.117 23.1797V27.25H195.672V15.5469H196.992L197.062 16.4844C197.651 15.7552 198.469 15.3906 199.516 15.3906C200.531 15.3906 201.333 15.7734 201.922 16.5391C202.516 17.3047 202.812 18.3698 202.812 19.7344V19.8672ZM201.367 19.7031C201.367 18.75 201.164 17.9974 200.758 17.4453C200.352 16.8932 199.794 16.6172 199.086 16.6172C198.211 16.6172 197.555 17.0052 197.117 17.7812V21.8203C197.549 22.5911 198.211 22.9766 199.102 22.9766C199.794 22.9766 200.344 22.7031 200.75 22.1562C201.161 21.6042 201.367 20.7865 201.367 19.7031ZM204.273 19.6953C204.273 18.8672 204.435 18.1224 204.758 17.4609C205.086 16.7995 205.539 16.2891 206.117 15.9297C206.701 15.5703 207.365 15.3906 208.109 15.3906C209.26 15.3906 210.19 15.7891 210.898 16.5859C211.612 17.3828 211.969 18.4427 211.969 19.7656V19.8672C211.969 20.6901 211.81 21.4297 211.492 22.0859C211.18 22.737 210.729 23.2448 210.141 23.6094C209.557 23.974 208.885 24.1562 208.125 24.1562C206.979 24.1562 206.049 23.7578 205.336 22.9609C204.628 22.1641 204.273 21.1094 204.273 19.7969V19.6953ZM205.727 19.8672C205.727 20.8047 205.943 21.5573 206.375 22.125C206.812 22.6927 207.396 22.9766 208.125 22.9766C208.859 22.9766 209.443 22.6901 209.875 22.1172C210.307 21.5391 210.523 20.7318 210.523 19.6953C210.523 18.7682 210.302 18.0182 209.859 17.4453C209.422 16.8672 208.839 16.5781 208.109 16.5781C207.396 16.5781 206.82 16.862 206.383 17.4297C205.945 17.9974 205.727 18.8099 205.727 19.8672ZM213.914 24V15.5469H217.211C218.336 15.5469 219.198 15.7448 219.797 16.1406C220.401 16.5312 220.703 17.1068 220.703 17.8672C220.703 18.2578 220.586 18.612 220.352 18.9297C220.117 19.2422 219.771 19.4818 219.312 19.6484C219.823 19.7682 220.232 20.0026 220.539 20.3516C220.852 20.7005 221.008 21.1172 221.008 21.6016C221.008 22.3776 220.721 22.9714 220.148 23.3828C219.581 23.7943 218.776 24 217.734 24H213.914ZM215.359 20.2891V22.8359H217.75C218.354 22.8359 218.805 22.724 219.102 22.5C219.404 22.276 219.555 21.9609 219.555 21.5547C219.555 20.7109 218.935 20.2891 217.695 20.2891H215.359ZM215.359 19.1328H217.227C218.581 19.1328 219.258 18.737 219.258 17.9453C219.258 17.1536 218.617 16.7448 217.336 16.7188H215.359V19.1328ZM222.539 19.6953C222.539 18.8672 222.701 18.1224 223.023 17.4609C223.352 16.7995 223.805 16.2891 224.383 15.9297C224.966 15.5703 225.63 15.3906 226.375 15.3906C227.526 15.3906 228.456 15.7891 229.164 16.5859C229.878 17.3828 230.234 18.4427 230.234 19.7656V19.8672C230.234 20.6901 230.076 21.4297 229.758 22.0859C229.445 22.737 228.995 23.2448 228.406 23.6094C227.823 23.974 227.151 24.1562 226.391 24.1562C225.245 24.1562 224.315 23.7578 223.602 22.9609C222.893 22.1641 222.539 21.1094 222.539 19.7969V19.6953ZM223.992 19.8672C223.992 20.8047 224.208 21.5573 224.641 22.125C225.078 22.6927 225.661 22.9766 226.391 22.9766C227.125 22.9766 227.708 22.6901 228.141 22.1172C228.573 21.5391 228.789 20.7318 228.789 19.6953C228.789 18.7682 228.568 18.0182 228.125 17.4453C227.688 16.8672 227.104 16.5781 226.375 16.5781C225.661 16.5781 225.086 16.862 224.648 17.4297C224.211 17.9974 223.992 18.8099 223.992 19.8672ZM234.68 20.3984H233.625V24H232.172V15.5469H233.625V19.125H234.57L237.414 15.5469H239.164L235.82 19.6094L239.445 24H237.609L234.68 20.3984ZM244.586 22.8203L245.086 22.2031C245.648 21.474 245.969 20.3802 246.047 18.9219L246.18 15.5469H251.625V22.8203H252.711V26.4844H251.266V24H245.367V26.4844H243.922L243.93 22.8203H244.586ZM246.297 22.8203H250.18V16.8828H247.578L247.492 18.8984C247.404 20.5807 247.005 21.888 246.297 22.8203ZM253.93 19.6953C253.93 18.8672 254.091 18.1224 254.414 17.4609C254.742 16.7995 255.195 16.2891 255.773 15.9297C256.357 15.5703 257.021 15.3906 257.766 15.3906C258.917 15.3906 259.846 15.7891 260.555 16.5859C261.268 17.3828 261.625 18.4427 261.625 19.7656V19.8672C261.625 20.6901 261.466 21.4297 261.148 22.0859C260.836 22.737 260.385 23.2448 259.797 23.6094C259.214 23.974 258.542 24.1562 257.781 24.1562C256.635 24.1562 255.706 23.7578 254.992 22.9609C254.284 22.1641 253.93 21.1094 253.93 19.7969V19.6953ZM255.383 19.8672C255.383 20.8047 255.599 21.5573 256.031 22.125C256.469 22.6927 257.052 22.9766 257.781 22.9766C258.516 22.9766 259.099 22.6901 259.531 22.1172C259.964 21.5391 260.18 20.7318 260.18 19.6953C260.18 18.7682 259.958 18.0182 259.516 17.4453C259.078 16.8672 258.495 16.5781 257.766 16.5781C257.052 16.5781 256.477 16.862 256.039 17.4297C255.602 17.9974 255.383 18.8099 255.383 19.8672ZM270.039 20.3984H268.984V24H267.531V15.5469H268.984V19.125H269.93L272.773 15.5469H274.523L271.18 19.6094L274.805 24H272.969L270.039 20.3984ZM275.492 19.6953C275.492 18.8672 275.654 18.1224 275.977 17.4609C276.305 16.7995 276.758 16.2891 277.336 15.9297C277.919 15.5703 278.583 15.3906 279.328 15.3906C280.479 15.3906 281.409 15.7891 282.117 16.5859C282.831 17.3828 283.188 18.4427 283.188 19.7656V19.8672C283.188 20.6901 283.029 21.4297 282.711 22.0859C282.398 22.737 281.948 23.2448 281.359 23.6094C280.776 23.974 280.104 24.1562 279.344 24.1562C278.198 24.1562 277.268 23.7578 276.555 22.9609C275.846 22.1641 275.492 21.1094 275.492 19.7969V19.6953ZM276.945 19.8672C276.945 20.8047 277.161 21.5573 277.594 22.125C278.031 22.6927 278.615 22.9766 279.344 22.9766C280.078 22.9766 280.661 22.6901 281.094 22.1172C281.526 21.5391 281.742 20.7318 281.742 19.6953C281.742 18.7682 281.521 18.0182 281.078 17.4453C280.641 16.8672 280.057 16.5781 279.328 16.5781C278.615 16.5781 278.039 16.862 277.602 17.4297C277.164 17.9974 276.945 18.8099 276.945 19.8672ZM291.906 24H290.461V20.3906H286.578V24H285.125V15.5469H286.578V19.2109H290.461V15.5469H291.906V24ZM294.359 15.5469H295.812V22.8203H299.703V15.5469H301.148V22.8203H302.156L302.016 26.5078H300.719V24H294.359V15.5469ZM308.938 24C308.854 23.8333 308.786 23.5365 308.734 23.1094C308.062 23.8073 307.26 24.1562 306.328 24.1562C305.495 24.1562 304.81 23.9219 304.273 23.4531C303.742 22.9792 303.477 22.3802 303.477 21.6562C303.477 20.776 303.81 20.0938 304.477 19.6094C305.148 19.1198 306.091 18.875 307.305 18.875H308.711V18.2109C308.711 17.7057 308.56 17.3047 308.258 17.0078C307.956 16.7057 307.51 16.5547 306.922 16.5547C306.406 16.5547 305.974 16.6849 305.625 16.9453C305.276 17.2057 305.102 17.5208 305.102 17.8906H303.648C303.648 17.4688 303.797 17.0625 304.094 16.6719C304.396 16.276 304.802 15.9635 305.312 15.7344C305.828 15.5052 306.393 15.3906 307.008 15.3906C307.982 15.3906 308.745 15.6354 309.297 16.125C309.849 16.6094 310.135 17.2786 310.156 18.1328V22.0234C310.156 22.7995 310.255 23.4167 310.453 23.875V24H308.938ZM306.539 22.8984C306.992 22.8984 307.422 22.7812 307.828 22.5469C308.234 22.3125 308.529 22.0078 308.711 21.6328V19.8984H307.578C305.807 19.8984 304.922 20.4167 304.922 21.4531C304.922 21.9062 305.073 22.2604 305.375 22.5156C305.677 22.7708 306.065 22.8984 306.539 22.8984Z" fill="black"></path> <path d="M20.3445 6.56863C20.7205 6.24242 21.2791 6.24242 21.6551 6.56863L23.2412 7.94469C23.4732 8.14598 23.7848 8.22948 24.0864 8.17116L26.148 7.77249C26.6367 7.67798 27.1205 7.95732 27.2831 8.42782L27.9686 10.4126C28.0689 10.7029 28.297 10.931 28.5873 11.0313L30.572 11.7168C31.0426 11.8794 31.3219 12.3632 31.2274 12.8519L30.8287 14.9135C30.7704 15.2151 30.8539 15.5267 31.0552 15.7587L32.4312 17.3448C32.7574 17.7208 32.7574 18.2794 32.4312 18.6554L31.0552 20.2415C30.8539 20.4735 30.7704 20.7851 30.8287 21.0867L31.2274 23.1483C31.3219 23.637 31.0426 24.1208 30.572 24.2834L28.5873 24.9689C28.297 25.0692 28.0689 25.2973 27.9686 25.5876L27.2831 27.5723C27.1205 28.0429 26.6367 28.3222 26.148 28.2277L24.0864 27.829C23.7848 27.7707 23.4732 27.8542 23.2412 28.0555L21.6551 29.4315C21.2791 29.7577 20.7205 29.7577 20.3445 29.4315L18.7584 28.0555C18.5264 27.8542 18.2148 27.7707 17.9132 27.829L15.8516 28.2277C15.3629 28.3222 14.8791 28.0429 14.7165 27.5723L14.031 25.5876C13.9307 25.2973 13.7026 25.0692 13.4123 24.9689L11.4276 24.2834C10.957 24.1208 10.6777 23.637 10.7722 23.1483L11.1709 21.0867C11.2292 20.7851 11.1457 20.4735 10.9444 20.2415L9.56839 18.6554C9.24218 18.2794 9.24218 17.7208 9.56839 17.3448L10.9444 15.7587C11.1457 15.5267 11.2292 15.2151 11.1709 14.9135L10.7722 12.8519C10.6777 12.3632 10.957 11.8794 11.4276 11.7168L13.4123 11.0313C13.7026 10.931 13.9307 10.7029 14.031 10.4126L14.7165 8.42782C14.8791 7.95732 15.3629 7.67798 15.8516 7.77249L17.9132 8.17116C18.2148 8.22948 18.5264 8.14598 18.7584 7.94469L20.3445 6.56863Z" fill="black"></path> <path d="M22.1641 20.5078H20.2891L20.0233 12.625H22.4297L22.1641 20.5078ZM21.2266 21.7422C21.6068 21.7422 21.9115 21.8542 22.1406 22.0781C22.375 22.3021 22.4922 22.5885 22.4922 22.9375C22.4922 23.2812 22.375 23.5651 22.1406 23.7891C21.9115 24.013 21.6068 24.125 21.2266 24.125C20.8516 24.125 20.5469 24.013 20.3125 23.7891C20.0833 23.5651 19.9688 23.2812 19.9688 22.9375C19.9688 22.5938 20.0833 22.3099 20.3125 22.0859C20.5469 21.8568 20.8516 21.7422 21.2266 21.7422Z" fill="white"></path> <path d="M319.536 24.144C319.152 24.144 318.789 24.096 318.448 24C318.107 23.904 317.808 23.7547 317.552 23.552C317.307 23.3493 317.109 23.0933 316.96 22.784C316.821 22.4747 316.752 22.1067 316.752 21.68C316.752 21.2 316.869 20.7947 317.104 20.464C317.339 20.1333 317.648 19.8667 318.032 19.664C318.427 19.4613 318.875 19.3173 319.376 19.232C319.888 19.136 320.411 19.088 320.944 19.088H322.144V18.48C322.144 17.808 322.005 17.328 321.728 17.04C321.451 16.7413 320.992 16.592 320.352 16.592C319.2 16.592 318.56 17.0933 318.432 18.096H317.104C317.147 17.616 317.264 17.2107 317.456 16.88C317.659 16.5493 317.909 16.2827 318.208 16.08C318.517 15.8667 318.859 15.7173 319.232 15.632C319.616 15.536 320.011 15.488 320.416 15.488C320.811 15.488 321.195 15.536 321.568 15.632C321.941 15.7173 322.267 15.8773 322.544 16.112C322.821 16.336 323.045 16.64 323.216 17.024C323.387 17.408 323.472 17.8933 323.472 18.48V24H322.144V22.944C321.835 23.3387 321.477 23.6373 321.072 23.84C320.667 24.0427 320.155 24.144 319.536 24.144ZM319.664 23.088C320.016 23.088 320.341 23.0453 320.64 22.96C320.949 22.864 321.211 22.7307 321.424 22.56C321.648 22.3893 321.824 22.1813 321.952 21.936C322.08 21.68 322.144 21.392 322.144 21.072V20.032H320.992C320.576 20.032 320.187 20.064 319.824 20.128C319.472 20.1813 319.163 20.272 318.896 20.4C318.64 20.528 318.437 20.6987 318.288 20.912C318.149 21.1147 318.08 21.3707 318.08 21.68C318.08 22.1173 318.197 22.464 318.432 22.72C318.667 22.9653 319.077 23.088 319.664 23.088ZM325.985 15.632H328.913C329.307 15.632 329.681 15.6693 330.033 15.744C330.385 15.808 330.694 15.92 330.961 16.08C331.238 16.24 331.457 16.4587 331.617 16.736C331.777 17.0027 331.857 17.344 331.857 17.76V17.808C331.857 18.1813 331.75 18.544 331.537 18.896C331.323 19.248 330.982 19.4827 330.513 19.6C331.046 19.7173 331.467 19.9253 331.777 20.224C332.097 20.5227 332.257 20.944 332.257 21.488V21.536C332.257 22.368 331.985 22.9867 331.441 23.392C330.907 23.7973 330.182 24 329.265 24H325.985V15.632ZM327.313 16.688V19.168H328.913C329.467 19.168 329.862 19.0667 330.097 18.864C330.342 18.6613 330.465 18.3307 330.465 17.872V17.824C330.465 17.376 330.331 17.0773 330.065 16.928C329.798 16.768 329.409 16.688 328.897 16.688H327.313ZM327.313 20.224V22.944H329.137C329.723 22.944 330.155 22.8427 330.433 22.64C330.721 22.4267 330.865 22.0853 330.865 21.616V21.568C330.865 21.088 330.721 20.7467 330.433 20.544C330.145 20.3307 329.713 20.224 329.137 20.224H327.313ZM335.703 16.752V24H334.375V15.632H339.687V16.752H335.703ZM344.182 23.136L340.902 15.632H342.326L344.886 21.632L347.206 15.632H348.566L343.942 26.912H342.598L344.182 23.136ZM353.553 24.144C352.966 24.144 352.422 24.048 351.921 23.856C351.43 23.6533 350.998 23.3707 350.625 23.008C350.262 22.6347 349.974 22.1867 349.761 21.664C349.558 21.1413 349.457 20.5547 349.457 19.904V19.776C349.457 19.136 349.563 18.5547 349.777 18.032C349.99 17.4987 350.278 17.0453 350.641 16.672C351.014 16.2987 351.446 16.0107 351.937 15.808C352.427 15.5947 352.955 15.488 353.521 15.488C353.958 15.488 354.379 15.5413 354.785 15.648C355.201 15.7547 355.569 15.9253 355.889 16.16C356.219 16.384 356.497 16.6827 356.721 17.056C356.945 17.4293 357.089 17.8827 357.153 18.416H355.841C355.734 17.7547 355.462 17.2853 355.025 17.008C354.598 16.7307 354.097 16.592 353.521 16.592C353.137 16.592 352.779 16.6667 352.449 16.816C352.129 16.9653 351.846 17.1787 351.601 17.456C351.366 17.7227 351.179 18.0533 351.041 18.448C350.902 18.8427 350.833 19.2853 350.833 19.776V19.904C350.833 20.9387 351.083 21.7227 351.585 22.256C352.097 22.7787 352.758 23.04 353.569 23.04C353.867 23.04 354.15 22.9973 354.417 22.912C354.694 22.8267 354.939 22.6987 355.153 22.528C355.377 22.3573 355.558 22.144 355.697 21.888C355.846 21.632 355.937 21.3333 355.969 20.992H357.201C357.158 21.44 357.035 21.8613 356.833 22.256C356.641 22.64 356.385 22.9707 356.065 23.248C355.745 23.5253 355.371 23.744 354.945 23.904C354.518 24.064 354.054 24.144 353.553 24.144ZM364.982 16.752H362.278V24H360.95V16.752H358.246V15.632H364.982V16.752ZM368.927 24.144C368.543 24.144 368.18 24.096 367.839 24C367.497 23.904 367.199 23.7547 366.943 23.552C366.697 23.3493 366.5 23.0933 366.351 22.784C366.212 22.4747 366.143 22.1067 366.143 21.68C366.143 21.2 366.26 20.7947 366.495 20.464C366.729 20.1333 367.039 19.8667 367.423 19.664C367.817 19.4613 368.265 19.3173 368.767 19.232C369.279 19.136 369.801 19.088 370.335 19.088H371.535V18.48C371.535 17.808 371.396 17.328 371.119 17.04C370.841 16.7413 370.383 16.592 369.743 16.592C368.591 16.592 367.951 17.0933 367.823 18.096H366.495C366.537 17.616 366.655 17.2107 366.847 16.88C367.049 16.5493 367.3 16.2827 367.599 16.08C367.908 15.8667 368.249 15.7173 368.623 15.632C369.007 15.536 369.401 15.488 369.807 15.488C370.201 15.488 370.585 15.536 370.959 15.632C371.332 15.7173 371.657 15.8773 371.935 16.112C372.212 16.336 372.436 16.64 372.607 17.024C372.777 17.408 372.863 17.8933 372.863 18.48V24H371.535V22.944C371.225 23.3387 370.868 23.6373 370.463 23.84C370.057 24.0427 369.545 24.144 368.927 24.144ZM369.055 23.088C369.407 23.088 369.732 23.0453 370.031 22.96C370.34 22.864 370.601 22.7307 370.815 22.56C371.039 22.3893 371.215 22.1813 371.343 21.936C371.471 21.68 371.535 21.392 371.535 21.072V20.032H370.383C369.967 20.032 369.577 20.064 369.215 20.128C368.863 20.1813 368.553 20.272 368.287 20.4C368.031 20.528 367.828 20.6987 367.679 20.912C367.54 21.1147 367.471 21.3707 367.471 21.68C367.471 22.1173 367.588 22.464 367.823 22.72C368.057 22.9653 368.468 23.088 369.055 23.088Z" fill="black"></path> </svg> 