<?xml version="1.0" encoding="UTF-8"?> <svg xmlns="http://www.w3.org/2000/svg" width="106" height="24" viewBox="0 0 106 24" fill="none"> <path fill-rule="evenodd" clip-rule="evenodd" d="M14.7179 16.9956C14.7179 20.7404 11.7823 23.4562 7.1193 23.4562C4.41549 23.3801 1.85318 22.2118 0 20.2102L1.55948 18.4581C3.0191 19.87 4.73651 21.2421 7.08843 21.2421C9.70085 21.2421 12.5176 19.7537 12.5176 17.0813C12.5176 14.8617 10.781 13.4139 7.132 12.2722C2.97371 10.9812 0.861428 9.22901 0.861428 5.93507C0.861428 2.67521 3.57735 0 7.44698 0C10.3371 0 12.1454 1.25138 13.9055 2.85042L12.3723 4.57948C10.8291 3.1907 9.35861 2.24916 7.55409 2.24916C5.31564 2.24916 3.10624 3.71541 3.10624 5.82625C3.10624 7.73883 4.18825 8.95698 8.00796 10.1448C11.5063 11.2394 14.7179 12.9353 14.7179 16.9946V16.9956ZM33.5837 2.15585C33.5837 3.1829 34.403 4.01549 35.4136 4.01549C35.8991 4.01574 36.3647 3.81989 36.708 3.47109C37.0512 3.12228 37.2439 2.64913 37.2436 2.15585C37.2436 1.12879 36.4244 0.296204 35.4136 0.296204C34.403 0.296204 33.5837 1.12879 33.5837 2.15585ZM56.4425 22.3426C56.4425 22.3426 57.8005 23.463 62.3246 23.463L62.3218 23.4621C66.7879 23.4621 70.4124 20.1442 70.4124 15.6108C70.4124 11.0774 66.7907 7.77236 62.3246 7.77236C61.0578 7.7379 59.8001 7.99911 58.6483 8.53592V0.680899L56.4425 0.680899L56.4425 22.3426ZM72.9955 15.6325C72.9952 20.1679 76.6141 23.8447 81.0788 23.8453C85.5437 23.8453 89.1634 20.1687 89.1639 15.6331C89.1639 11.0978 85.5446 7.42112 81.0799 7.42095C76.6154 7.42079 72.9958 11.0972 72.9955 15.6325ZM102.542 23.0924H105.421L99.0556 15.3894L104.992 8.16519L102.129 8.16519L97.6201 13.652L93.0889 8.16519H90.2096L96.1885 15.3996L89.8675 23.0924H92.7294L97.623 17.1369L102.542 23.0924ZM81.1003 9.63973C78.7192 9.63934 76.5724 11.0962 75.661 13.331C74.7497 15.5657 75.2533 18.1381 76.9369 19.8486C78.6206 21.5591 81.1528 22.0706 83.3525 21.1449C85.5522 20.219 86.9863 18.038 86.986 15.619C86.9855 12.3169 84.3506 9.6402 81.1003 9.63973ZM62.3365 10.0174C61.0192 10.0362 59.7382 10.4579 58.6602 11.2274V20.476C59.8027 21.0401 61.0684 21.2973 62.3365 21.2231C65.5843 21.2231 68.2186 18.9174 68.2186 15.6203C68.2186 12.3231 65.5816 10.0165 62.3338 10.0165L62.3365 10.0174ZM51.3053 0.681128L49.0995 0.681128L49.0995 23.0887H51.3053L51.3053 0.681128ZM41.7535 0.681128L43.9593 0.681128L43.9593 23.0887H41.7535L41.7535 0.681128ZM20.4213 15.2624L20.4132 15.2543L20.4213 15.2461V15.2624ZM20.4213 23.0887V15.2624L28.1289 23.0926H31.2479L23.5322 15.2543L30.5172 8.15355L27.3982 8.15355L20.4213 15.2461L20.4213 0.681128L18.2155 0.681128L18.2155 23.0887H20.4213ZM34.3928 23.0926H36.5985L36.5985 8.15355H34.3928L34.3928 23.0926Z" fill="white"></path> </svg> 