<?xml version="1.0" encoding="UTF-8"?> <svg xmlns="http://www.w3.org/2000/svg" width="34" height="42" fill="none"> <path d="M33.6296 11.0675C31.9375 6.0763 28.9765 0 28.9765 0l-4.0186 2.3871 4.7588 10.308s.6345 2.6041-1.0575 3.4721c-1.692.868-3.1725-.217-3.1725-.217L20.1991 4.6657l-3.3841 1.953 1.269 3.4722s-1.0575-1.736-3.5955-1.953c-2.5381-.217-4.8646 1.519-4.8646 1.519l-5.9221 3.4722 7.0854 15.9502 4.23-2.1701-2.7495-6.0763 1.4805-.868 5.2876 4.9912 4.4416-2.3871-5.4991-5.6423s1.692-2.3871 1.0575-4.1231l3.3841 5.8592s3.384 4.5572 8.2486.868c0 0 4.6531-3.4721 2.9611-8.4633zM13.854 16.1672l-2.7496 1.5191-1.4805-3.2552 1.269-.868s1.9035-1.5191 2.9611.217c1.0575 1.7361 0 2.3871 0 2.3871zm4.6657 14.7198l.8334-2.3503H1.5868l.7867 2.22c-.772.2479-1.432.7713-1.8603 1.4755-.4283.7042-.5966 1.5424-.4743 2.3629.1222.8205.5269 1.569 1.1407 2.1097.6137.5407 1.396.8379 2.205.8378h.1691l.7337.9657L4.298 42h12.3438v-3.4917l.5476-.868c.0846 0 .1692.013.2559.013.8026-.0014 1.5785-.2953 2.1894-.8294.6108-.5341 1.0168-1.2736 1.1454-2.0864.1286-.8128-.0286-1.646-.4434-2.351-.4148-.7049-1.0603-1.2356-1.8212-1.4974l.0042-.0021z" fill="#fff"></path> </svg> 