<?xml version="1.0" encoding="UTF-8"?> <!-- Generator: Adobe Illustrator 23.1.1, SVG Export Plug-In . SVG Version: 6.00 Build 0) --> <svg xmlns="http://www.w3.org/2000/svg" xmlns:xlink="http://www.w3.org/1999/xlink" id="Слой_1" x="0px" y="0px" viewBox="0 0 224 163" style="enable-background:new 0 0 224 163;" xml:space="preserve"> <style type="text/css"> .st0{fill:#F5F5F5;} .st1{clip-path:url(#SVGID_2_);fill:#F5F5F5;} </style> <path class="st0" d="M15.6,15.3h192.8v136.1H15.6V15.3z M12.7,154.2h198.4V12.4H12.7V154.2z"></path> <g> <defs> <rect id="SVGID_1_" x="12.7" y="12.4" width="198.4" height="141.7"></rect> </defs> <clipPath id="SVGID_2_"> <use xlink:href="#SVGID_1_" style="overflow:visible;"></use> </clipPath> <path class="st1" d="M45.1,117.6c-0.3-1.2-1-3.6-4.5-3.6c-2.1,0-5.2,1.5-5.2,7.3c0,3.7,1.6,7.1,5.2,7.1c2.4,0,4-1.4,4.5-4h4.3 c-0.9,4.5-3.8,7.6-8.9,7.6c-5.5,0-9.4-3.7-9.4-10.8c0-7.2,4.1-10.8,9.4-10.8c6.1,0,8.6,4.2,8.9,7.3H45.1z"></path> <polygon class="st1" points="54.6,122 59.7,116.2 64.6,116.2 59.2,122.1 64.7,131.4 59.9,131.4 56.3,124.9 54.6,126.6 54.6,131.4 50.7,131.4 50.7,116.2 54.6,116.2 "></polygon> <path class="st1" d="M79.3,123.8c0,5.5-3.7,8-7.7,8s-7.8-2.5-7.8-8c0-5.5,3.7-8,7.8-8S79.3,118.3,79.3,123.8 M67.9,123.8 c0,2,0.6,4.7,3.7,4.7s3.6-2.7,3.6-4.6c0-1.9-0.6-4.6-3.6-4.6S67.9,121.8,67.9,123.8"></path> <path class="st1" d="M94.3,116.2v15.2h-4v-12H86v4.7c0,5.8-1.8,7.7-4.6,7.7c-0.7,0-1.8-0.1-2.4-0.3v-3c0.1,0.1,0.6,0.1,1.2,0.1 c1.2,0,1.8-0.6,1.8-5.2v-7.1H94.3z"></path> <polygon class="st1" points="100.3,122 105.3,116.2 110.2,116.2 104.9,122.1 110.4,131.4 105.6,131.4 102,124.9 100.3,126.6 100.3,131.4 96.3,131.4 96.3,116.2 100.3,116.2 "></polygon> <path class="st1" d="M125,123.8c0,5.5-3.7,8-7.7,8c-4.1,0-7.8-2.5-7.8-8c0-5.5,3.7-8,7.8-8C121.3,115.8,125,118.3,125,123.8 M113.5,123.8c0,2,0.6,4.7,3.7,4.7c3.1,0,3.6-2.7,3.6-4.6c0-1.9-0.6-4.6-3.6-4.6C114.1,119.2,113.5,121.8,113.5,123.8"></path> <path class="st1" d="M126.3,116.2h6.9c3.4,0,5.9,1.4,5.9,3.9c0,1.8-1.2,2.9-2.8,3.3c1.6,0.4,3.3,1.4,3.3,3.8c0,2.8-2.1,4.2-5.6,4.2 h-7.6V116.2z M130.2,122.4h2.6c1.3,0,2.3-0.5,2.3-1.7c0-1.2-0.9-1.7-2.2-1.7h-2.6V122.4z M130.2,128.7h2.9c1.5,0,2.4-0.5,2.4-2 c0-1.3-1-1.9-2.4-1.9h-2.9V128.7z"></path> <path class="st1" d="M155.4,123.8c0,5.5-3.7,8-7.7,8c-4.1,0-7.8-2.5-7.8-8c0-5.5,3.7-8,7.8-8C151.7,115.8,155.4,118.3,155.4,123.8 M144,123.8c0,2,0.6,4.7,3.7,4.7c3.1,0,3.6-2.7,3.6-4.6c0-1.9-0.6-4.6-3.6-4.6C144.6,119.2,144,121.8,144,123.8"></path> <path class="st1" d="M60.1,106.9c3.4,0,11.8-0.6,18-5.2v3.5h12.6l0-15.2l5.3-5.5l11.5,20.7h15.1l-17.4-29.6L122.2,57h-15.5 L90.8,75.3V40.2H78.2v5.6c-3.9-4.1-10.1-7.3-19.8-7.3c-21,0-25,12.8-25,20c0,9.9,5.3,15.3,14.5,17.6L61,79.2 c6.9,1.7,11.8,3,11.8,8.1c0,6.8-7.2,8.4-13.6,8.4c-11.8,0-13.8-6.9-13.8-10.6h-13C32.4,93.2,36.5,106.9,60.1,106.9 M68.7,68.1 l-15.8-3.9c-2.7-0.6-6.9-1.7-6.9-6.8c0-5.8,6.2-7.8,11.4-7.8c11.8,0,12.9,6.9,13.2,9.9h7.5v12.1C75.4,70,72.1,69,68.7,68.1"></path> </g> <text transform="matrix(1 0 0 1 706.5195 16.7974)" style="fill:#656868; font-family:'Helvetica'; font-size:9px;">-</text> </svg> 